<svg width="35" height="34" viewBox="0 0 35 34" fill="none" xmlns="http://www.w3.org/2000/svg">
<path fill-rule="evenodd" clip-rule="evenodd" d="M9.15699 1.59998H26.0434C29.8975 1.59998 33.0002 4.70271 33.0002 8.55678V25.4432C33.0002 29.2972 29.8975 32.4 26.0434 32.4H9.15699C5.3029 32.4 2.2002 29.2972 2.2002 25.4432V8.55678C2.2002 4.70271 5.3029 1.59998 9.15699 1.59998Z" stroke="#013660" stroke-width="3" stroke-linecap="round" stroke-linejoin="round"/>
<path fill-rule="evenodd" clip-rule="evenodd" d="M8.94248 11.5H11.9579C12.6461 11.5 13.2002 12.0541 13.2002 12.7423V15.7577C13.2002 16.4459 12.6461 17 11.9579 17H8.94248C8.25425 17 7.7002 16.4459 7.7002 15.7577V12.7423C7.7002 12.0541 8.25425 11.5 8.94248 11.5Z" stroke="#E5254A" stroke-width="3" stroke-linecap="round" stroke-linejoin="round"/>
<path fill-rule="evenodd" clip-rule="evenodd" d="M19.9425 11.5H22.9579C23.6461 11.5 24.2002 12.0541 24.2002 12.7423V15.7577C24.2002 16.4459 23.6461 17 22.9579 17H19.9425C19.2543 17 18.7002 16.4459 18.7002 15.7577V12.7423C18.7002 12.0541 19.2543 11.5 19.9425 11.5Z" stroke="#E5254A" stroke-width="3" stroke-linecap="round" stroke-linejoin="round"/>
</svg>
