<svg width="38" height="38" viewBox="0 0 38 38" fill="none" xmlns="http://www.w3.org/2000/svg">
<path fill-rule="evenodd" clip-rule="evenodd" d="M12.2579 10.8H32.4145C32.9646 10.8 33.5073 10.9347 34.0006 11.1937C34.4939 11.4527 34.9246 11.829 35.2595 12.2935C35.5943 12.758 35.8243 13.2983 35.9316 13.8725C36.0389 14.4468 36.0207 15.0396 35.8784 15.6052L34.1037 22.6553C33.7567 24.0339 32.9921 25.252 31.9284 26.1208C30.8648 26.9896 29.5615 27.4605 28.2208 27.4605H16.4517C15.1109 27.4605 13.8077 26.9896 12.744 26.1208C11.6804 25.252 10.9157 24.0339 10.5687 22.6553L8.79408 15.6052C8.65172 15.0396 8.63346 14.4468 8.74077 13.8725C8.84808 13.2983 9.07806 12.758 9.41291 12.2935C9.74776 11.829 10.1785 11.4527 10.6718 11.1937C11.1651 10.9347 11.7079 10.8 12.2579 10.8Z" stroke="#E5254A" stroke-width="3" stroke-linecap="round" stroke-linejoin="round"/>
<path d="M9.4273 18.122L6.47205 6.3817C5.88837 4.06293 3.91435 2.45056 1.65918 2.45056" stroke="#E5254A" stroke-width="3" stroke-linecap="round" stroke-linejoin="round"/>
<path fill-rule="evenodd" clip-rule="evenodd" d="M17.9052 33.9657C17.9052 34.1737 17.8667 34.3796 17.7919 34.5718C17.7171 34.7639 17.6076 34.9385 17.4694 35.0855C17.3313 35.2326 17.1672 35.3492 16.9867 35.4288C16.8062 35.5084 16.6128 35.5494 16.4174 35.5494C16.2221 35.5494 16.0286 35.5084 15.8481 35.4288C15.6676 35.3492 15.5036 35.2326 15.3654 35.0855C15.2273 34.9385 15.1177 34.7639 15.043 34.5718C14.9682 34.3796 14.9297 34.1737 14.9297 33.9657C14.9297 33.7578 14.9682 33.5518 15.043 33.3597C15.1177 33.1676 15.2273 32.993 15.3654 32.8459C15.5036 32.6989 15.6676 32.5822 15.8481 32.5026C16.0286 32.423 16.2221 32.3821 16.4174 32.3821C16.6128 32.3821 16.8062 32.423 16.9867 32.5026C17.1672 32.5822 17.3313 32.6989 17.4694 32.8459C17.6076 32.993 17.7171 33.1676 17.7919 33.3597C17.8667 33.5518 17.9052 33.7578 17.9052 33.9657Z" stroke="#013660" stroke-width="3" stroke-linecap="round" stroke-linejoin="round"/>
<path fill-rule="evenodd" clip-rule="evenodd" d="M28.8261 33.9657C28.8261 34.1737 28.7876 34.3796 28.7129 34.5718C28.6381 34.7639 28.5285 34.9385 28.3903 35.0855C28.2522 35.2326 28.0882 35.3492 27.9077 35.4288C27.7272 35.5084 27.5337 35.5494 27.3383 35.5494C27.143 35.5494 26.9495 35.5084 26.769 35.4288C26.5885 35.3492 26.4245 35.2326 26.2863 35.0855C26.1482 34.9385 26.0386 34.7639 25.9639 34.5718C25.8891 34.3796 25.8506 34.1737 25.8506 33.9657C25.8506 33.7578 25.8891 33.5518 25.9639 33.3597C26.0386 33.1676 26.1482 32.993 26.2863 32.8459C26.4245 32.6989 26.5885 32.5822 26.769 32.5026C26.9495 32.423 27.143 32.3821 27.3383 32.3821C27.5337 32.3821 27.7272 32.423 27.9077 32.5026C28.0882 32.5822 28.2522 32.6989 28.3903 32.8459C28.5285 32.993 28.6381 33.1676 28.7129 33.3597C28.7876 33.5518 28.8261 33.7578 28.8261 33.9657Z" stroke="#013660" stroke-width="3" stroke-linecap="round" stroke-linejoin="round"/>
</svg>
