<svg width="34" height="34" viewBox="0 0 34 34" fill="none" xmlns="http://www.w3.org/2000/svg">
<path fill-rule="evenodd" clip-rule="evenodd" d="M4.49726 1.82483H11.3933C12.9673 1.82483 14.2343 3.09192 14.2343 4.66584V11.5619C14.2343 13.1358 12.9673 14.4029 11.3933 14.4029H4.49726C2.92333 14.4029 1.65625 13.1358 1.65625 11.5619V4.66584C1.65625 3.09192 2.92333 1.82483 4.49726 1.82483Z" stroke="#E5254A" stroke-width="3" stroke-linecap="round" stroke-linejoin="round"/>
<path fill-rule="evenodd" clip-rule="evenodd" d="M4.49726 19.597H11.3933C12.9673 19.597 14.2343 20.8641 14.2343 22.4381V29.3341C14.2343 30.908 12.9673 32.1751 11.3933 32.1751H4.49726C2.92333 32.1751 1.65625 30.908 1.65625 29.3341V22.4381C1.65625 20.8641 2.92333 19.597 4.49726 19.597Z" stroke="#013660" stroke-width="3" stroke-linecap="round" stroke-linejoin="round"/>
<path d="M19.4219 8.11389H32" stroke="#E5254A" stroke-width="3" stroke-linecap="round" stroke-linejoin="round"/>
<path d="M19.4219 13.301H32" stroke="#E5254A" stroke-width="3" stroke-linecap="round" stroke-linejoin="round"/>
<path d="M19.4219 25.8861H32" stroke="#013660" stroke-width="3" stroke-linecap="round" stroke-linejoin="round"/>
<path d="M19.4219 31.0732H32" stroke="#013660" stroke-width="3" stroke-linecap="round" stroke-linejoin="round"/>
</svg>
