<svg width="35" height="34" viewBox="0 0 35 34" fill="none" xmlns="http://www.w3.org/2000/svg">
<path fill-rule="evenodd" clip-rule="evenodd" d="M9.15681 1.59998H26.0432C29.8973 1.59998 33 4.70271 33 8.55678V25.4432C33 29.2972 29.8973 32.4 26.0432 32.4H9.15681C5.30272 32.4 2.20001 29.2972 2.20001 25.4432V8.55678C2.20001 4.70271 5.30272 1.59998 9.15681 1.59998Z" stroke="#013660" stroke-width="3" stroke-linecap="round" stroke-linejoin="round"/>
<path fill-rule="evenodd" clip-rule="evenodd" d="M8.9423 11.5H11.9577C12.646 11.5 13.2 12.0541 13.2 12.7423V15.7577C13.2 16.4459 12.646 17 11.9577 17H8.9423C8.25407 17 7.70001 16.4459 7.70001 15.7577V12.7423C7.70001 12.0541 8.25407 11.5 8.9423 11.5Z" stroke="#E5254A" stroke-width="3" stroke-linecap="round" stroke-linejoin="round"/>
<path fill-rule="evenodd" clip-rule="evenodd" d="M19.9423 11.5H22.9577C23.646 11.5 24.2 12.0541 24.2 12.7423V15.7577C24.2 16.4459 23.646 17 22.9577 17H19.9423C19.2541 17 18.7 16.4459 18.7 15.7577V12.7423C18.7 12.0541 19.2541 11.5 19.9423 11.5Z" stroke="#E5254A" stroke-width="3" stroke-linecap="round" stroke-linejoin="round"/>
</svg>
