<svg width="39" height="75" viewBox="0 0 39 75" fill="none" xmlns="http://www.w3.org/2000/svg">
<path d="M23.2754 74.5V66.25V65.8173L23.7036 65.7552C27.9297 65.1424 31.4515 63.5809 34.29 61.083C37.0744 58.6327 38.5 55.0365 38.5 50.2083C38.5 46.3634 37.3047 42.986 34.9109 40.0559C32.5232 37.1333 28.9892 34.9742 24.2631 33.6056C24.2628 33.6055 24.2624 33.6054 24.262 33.6053L24.4011 33.125C19.2567 31.6667 15.6417 30.2778 13.5561 28.9583C11.4706 27.6389 10.4278 25.8333 10.4278 23.5417C10.4278 21.5278 11.2273 19.8438 12.8262 18.4896C14.4251 17.1354 16.754 16.4583 19.8128 16.4583C22.4545 16.4583 24.5401 17.0139 26.0695 18.125C27.4902 19.1571 28.611 20.6686 29.4318 22.6595L23.2754 74.5ZM23.2754 74.5H15.9332V66.0417V65.6421L15.5435 65.554C11.9358 64.738 8.83239 63.1774 6.22248 60.875C3.72205 58.6692 1.84427 55.5694 0.609215 51.5427L7.40674 48.7899C8.46634 51.9382 10.0016 54.3904 12.0339 56.1108C14.1952 57.9405 17.0129 58.8333 20.4385 58.8333C23.3651 58.8333 25.8801 58.173 27.9579 56.8258C30.1042 55.4341 31.1578 53.2653 31.1578 50.4167C31.1578 47.8721 30.3521 45.8033 28.7043 44.2694C27.8796 43.5018 26.5518 42.7155 24.7647 41.9017C22.9686 41.0838 20.6725 40.2221 17.8817 39.3161L17.8769 39.3146C11.9242 37.4477 7.93391 35.2431 5.80263 32.7482C3.66291 30.2433 2.58556 27.1847 2.58556 23.5417C2.58556 19.1457 4.00133 15.7887 6.79044 13.4006C9.65326 10.9494 12.5522 9.58024 15.4896 9.24681L15.9332 9.19645V8.75V0.5H23.2754V8.75V9.17643L23.6965 9.24373C27.0957 9.78703 29.8717 11.021 32.0489 12.9282C34.127 14.7486 35.6744 16.9446 36.694 19.5224L29.8908 22.4612L23.2754 74.5Z" stroke="#ECF5FC"/>
</svg>
