<svg width="47" height="47" viewBox="0 0 47 47" fill="none" xmlns="http://www.w3.org/2000/svg">
<rect width="47" height="47" rx="12" fill="#013660"/>
<path fill-rule="evenodd" clip-rule="evenodd" d="M14.6652 7.38574H32.3348C36.3677 7.38574 39.6143 10.6324 39.6143 14.6652V32.3348C39.6143 36.3677 36.3677 39.6143 32.3348 39.6143H14.6652C10.6324 39.6143 7.38574 36.3677 7.38574 32.3348V14.6652C7.38574 10.6324 10.6324 7.38574 14.6652 7.38574Z" stroke="#EEF6FE" stroke-width="3" stroke-linecap="round" stroke-linejoin="round"/>
<path fill-rule="evenodd" clip-rule="evenodd" d="M14.6652 7.38574H32.3348C36.3677 7.38574 39.6143 10.6324 39.6143 14.6652V32.3348C39.6143 36.3677 36.3677 39.6143 32.3348 39.6143H14.6652C10.6324 39.6143 7.38574 36.3677 7.38574 32.3348V14.6652C7.38574 10.6324 10.6324 7.38574 14.6652 7.38574Z" stroke="url(#paint0_linear_814_10146)" stroke-opacity="0.25" stroke-width="3" stroke-linecap="round" stroke-linejoin="round"/>
<path fill-rule="evenodd" clip-rule="evenodd" d="M14.4408 17.7451H17.5961C18.3162 17.7451 18.896 18.3249 18.896 19.045V22.2003C18.896 22.9205 18.3162 23.5002 17.5961 23.5002H14.4408C13.7206 23.5002 13.1409 22.9205 13.1409 22.2003V19.045C13.1409 18.3249 13.7206 17.7451 14.4408 17.7451Z" stroke="#EEF6FE" stroke-width="3" stroke-linecap="round" stroke-linejoin="round"/>
<path fill-rule="evenodd" clip-rule="evenodd" d="M14.4408 17.7451H17.5961C18.3162 17.7451 18.896 18.3249 18.896 19.045V22.2003C18.896 22.9205 18.3162 23.5002 17.5961 23.5002H14.4408C13.7206 23.5002 13.1409 22.9205 13.1409 22.2003V19.045C13.1409 18.3249 13.7206 17.7451 14.4408 17.7451Z" stroke="url(#paint1_linear_814_10146)" stroke-opacity="0.25" stroke-width="3" stroke-linecap="round" stroke-linejoin="round"/>
<path fill-rule="evenodd" clip-rule="evenodd" d="M25.951 17.7451H29.1063C29.8265 17.7451 30.4062 18.3249 30.4062 19.045V22.2003C30.4062 22.9205 29.8265 23.5002 29.1063 23.5002H25.951C25.2309 23.5002 24.6511 22.9205 24.6511 22.2003V19.045C24.6511 18.3249 25.2309 17.7451 25.951 17.7451Z" stroke="#EEF6FE" stroke-width="3" stroke-linecap="round" stroke-linejoin="round"/>
<path fill-rule="evenodd" clip-rule="evenodd" d="M25.951 17.7451H29.1063C29.8265 17.7451 30.4062 18.3249 30.4062 19.045V22.2003C30.4062 22.9205 29.8265 23.5002 29.1063 23.5002H25.951C25.2309 23.5002 24.6511 22.9205 24.6511 22.2003V19.045C24.6511 18.3249 25.2309 17.7451 25.951 17.7451Z" stroke="url(#paint2_linear_814_10146)" stroke-opacity="0.25" stroke-width="3" stroke-linecap="round" stroke-linejoin="round"/>
<defs>
<linearGradient id="paint0_linear_814_10146" x1="23.5" y1="7.38574" x2="23.5" y2="39.6143" gradientUnits="userSpaceOnUse">
<stop stop-color="#3B4F7D" stop-opacity="0.08"/>
<stop offset="0.0001" stop-color="#EEF6FE" stop-opacity="0.25"/>
</linearGradient>
<linearGradient id="paint1_linear_814_10146" x1="16.0184" y1="17.7451" x2="16.0184" y2="23.5002" gradientUnits="userSpaceOnUse">
<stop stop-color="#3B4F7D" stop-opacity="0.08"/>
<stop offset="0.0001" stop-color="#EEF6FE" stop-opacity="0.25"/>
</linearGradient>
<linearGradient id="paint2_linear_814_10146" x1="27.5287" y1="17.7451" x2="27.5287" y2="23.5002" gradientUnits="userSpaceOnUse">
<stop stop-color="#3B4F7D" stop-opacity="0.08"/>
<stop offset="0.0001" stop-color="#EEF6FE" stop-opacity="0.25"/>
</linearGradient>
</defs>
</svg>
