<svg width="56" height="59" viewBox="0 0 56 59" fill="none" xmlns="http://www.w3.org/2000/svg">
<path d="M14.3378 7.13672H42.0445C48.3113 7.13672 53.3916 12.2184 53.3916 18.487V44.8595C53.3916 51.1281 48.3113 56.2098 42.0445 56.2098H14.3378C8.07101 56.2098 2.99075 51.1281 2.99075 44.8595V18.487C2.99075 12.2184 8.07101 7.13672 14.3378 7.13672Z" stroke="#013660" stroke-width="5" stroke-linecap="round"/>
<path d="M38.4499 3V10.4957" stroke="#013660" stroke-width="5" stroke-linecap="round"/>
<path d="M18.0067 3V10.4957" stroke="#013660" stroke-width="5" stroke-linecap="round"/>
<path d="M11.627 19.2168H44.7554" stroke="#013660" stroke-width="5" stroke-linecap="round"/>
<path d="M39.0626 24.7729H43.8943C45.6571 24.7729 47.0861 26.1883 47.0861 27.9342V32.4196C47.0861 34.1655 45.6571 35.5808 43.8943 35.5808H39.0626C37.2998 35.5808 35.8708 34.1655 35.8708 32.4196V27.9342C35.8708 26.1883 37.2998 24.7729 39.0626 24.7729Z" fill="#E5254A"/>
<path d="M25.8124 24.7729H30.6442C32.4069 24.7729 33.8359 26.1883 33.8359 27.9342V32.4196C33.8359 34.1655 32.4069 35.5808 30.6442 35.5808H25.8124C24.0497 35.5808 22.6207 34.1655 22.6207 32.4196V27.9342C22.6207 26.1883 24.0497 24.7729 25.8124 24.7729Z" fill="#E5254A"/>
<path d="M12.5623 24.7729H17.394C19.1567 24.7729 20.5858 26.1883 20.5858 27.9342V32.4196C20.5858 34.1655 19.1567 35.5808 17.394 35.5808H12.5623C10.7995 35.5808 9.37047 34.1655 9.37047 32.4196V27.9342C9.37047 26.1883 10.7995 24.7729 12.5623 24.7729Z" fill="#E5254A"/>
<path d="M39.0626 38.3711H43.8943C45.6571 38.3711 47.0861 39.7864 47.0861 41.5323V46.0177C47.0861 47.7636 45.6571 49.179 43.8943 49.179H39.0626C37.2998 49.179 35.8708 47.7636 35.8708 46.0177V41.5323C35.8708 39.7864 37.2998 38.3711 39.0626 38.3711Z" fill="#E5254A"/>
<path d="M25.8124 38.3711H30.6442C32.4069 38.3711 33.8359 39.7864 33.8359 41.5323V46.0177C33.8359 47.7636 32.4069 49.179 30.6442 49.179H25.8124C24.0497 49.179 22.6207 47.7636 22.6207 46.0177V41.5323C22.6207 39.7864 24.0497 38.3711 25.8124 38.3711Z" fill="#E5254A"/>
</svg>
