<svg width="91" height="104" viewBox="0 0 91 104" fill="none" xmlns="http://www.w3.org/2000/svg">
<path fill-rule="evenodd" clip-rule="evenodd" d="M29.0541 44H79.946C81.3348 44 82.7049 44.3557 83.9505 45.0396C85.196 45.7236 86.2835 46.7174 87.129 47.9441C87.9744 49.1709 88.5551 50.5978 88.826 52.1144C89.0969 53.631 89.051 55.1967 88.6915 56.6903L84.2108 75.3097C83.3347 78.9503 81.4042 82.1674 78.7187 84.4618C76.0331 86.7563 72.7426 88 69.3575 88H39.6426C36.2575 88 32.967 86.7563 30.2814 84.4618C27.5959 82.1674 25.6652 78.9503 24.7891 75.3097L20.3086 56.6903C19.9491 55.1967 19.903 53.631 20.1739 52.1144C20.4449 50.5978 21.0255 49.1709 21.871 47.9441C22.7164 46.7174 23.8039 45.7236 25.0495 45.0396C26.295 44.3557 27.6653 44 29.0541 44Z" stroke="white" stroke-width="3" stroke-linecap="round" stroke-linejoin="round"/>
<path d="M22 64L14.3913 32.5356C12.8886 26.3212 7.80621 22 2 22" stroke="white" stroke-width="3" stroke-linecap="round" stroke-linejoin="round"/>
<circle cx="45.5088" cy="58.4178" r="1.56401" stroke="white" stroke-width="3"/>
<circle cx="62.6673" cy="58.4178" r="1.56401" stroke="white" stroke-width="3"/>
<mask id="mask0_967_20665" style="mask-type:alpha" maskUnits="userSpaceOnUse" x="25" y="22" width="60" height="60">
<circle cx="54.701" cy="51.6771" r="29.4145" fill="#E5254A"/>
</mask>
<g mask="url(#mask0_967_20665)">
<circle cx="54.701" cy="97.0243" r="27.9145" stroke="white" stroke-width="3"/>
</g>
<path fill-rule="evenodd" clip-rule="evenodd" d="M43 97.5C43 98.091 42.9094 98.6761 42.7335 99.2221C42.5576 99.7681 42.2999 100.264 41.9749 100.682C41.6499 101.1 41.264 101.431 40.8393 101.657C40.4147 101.884 39.9596 102 39.5 102C39.0404 102 38.5853 101.884 38.1607 101.657C37.736 101.431 37.3501 101.1 37.0251 100.682C36.7001 100.264 36.4424 99.7681 36.2665 99.2221C36.0906 98.6761 36 98.091 36 97.5C36 96.9091 36.0906 96.3239 36.2665 95.7779C36.4424 95.232 36.7001 94.7359 37.0251 94.318C37.3501 93.9002 37.736 93.5687 38.1607 93.3425C38.5853 93.1164 39.0404 93 39.5 93C39.9596 93 40.4147 93.1164 40.8393 93.3425C41.264 93.5687 41.6499 93.9002 41.9749 94.318C42.2999 94.7359 42.5576 95.232 42.7335 95.7779C42.9094 96.3239 43 96.9091 43 97.5Z" stroke="white" stroke-width="3" stroke-linecap="round" stroke-linejoin="round"/>
<path fill-rule="evenodd" clip-rule="evenodd" d="M71 97.5C71 98.091 70.8966 98.6761 70.6956 99.2221C70.4946 99.7681 70.1998 100.264 69.8284 100.682C69.457 101.1 69.0161 101.431 68.5308 101.657C68.0455 101.884 67.5253 102 67 102C66.4747 102 65.9546 101.884 65.4693 101.657C64.984 101.431 64.543 101.1 64.1716 100.682C63.8002 100.264 63.5056 99.7681 63.3045 99.2221C63.1035 98.6761 63 98.091 63 97.5C63 96.9091 63.1035 96.3239 63.3045 95.7779C63.5056 95.232 63.8002 94.7359 64.1716 94.318C64.543 93.9002 64.984 93.5687 65.4693 93.3425C65.9546 93.1164 66.4747 93 67 93C67.5253 93 68.0455 93.1164 68.5308 93.3425C69.0161 93.5687 69.457 93.9002 69.8284 94.318C70.1998 94.7359 70.4946 95.232 70.6956 95.7779C70.8966 96.3239 71 96.9091 71 97.5Z" stroke="white" stroke-width="3" stroke-linecap="round" stroke-linejoin="round"/>
<path d="M53.3015 4.76H55.2535V10.072H53.3015V4.76ZM53.3015 29.464H55.2535V35.224H53.3015V29.464ZM60.5015 12.568C59.8402 12.12 59.1362 11.768 58.3895 11.512C57.6642 11.2347 56.9495 11.032 56.2455 10.904C55.5628 10.776 54.9228 10.712 54.3255 10.712C52.8748 10.712 51.7122 11 50.8375 11.576C49.9842 12.152 49.5575 12.9413 49.5575 13.944C49.5575 14.8187 49.7815 15.5227 50.2295 16.056C50.6988 16.5893 51.3068 17.0267 52.0535 17.368C52.8002 17.7093 53.6215 18.0187 54.5175 18.296C55.4135 18.552 56.3095 18.84 57.2055 19.16C58.1015 19.4587 58.9228 19.8533 59.6695 20.344C60.4162 20.8133 61.0135 21.432 61.4615 22.2C61.9095 22.9467 62.1335 23.9067 62.1335 25.08C62.1335 26.3173 61.7922 27.3947 61.1095 28.312C60.4268 29.208 59.4775 29.912 58.2615 30.424C57.0455 30.9147 55.6375 31.16 54.0375 31.16C52.9495 31.16 51.8828 31.0213 50.8375 30.744C49.7922 30.4453 48.8108 30.04 47.8935 29.528C46.9762 29.016 46.1655 28.4293 45.4615 27.768L46.6135 25.688C47.3175 26.3493 48.0855 26.9147 48.9175 27.384C49.7495 27.8533 50.6028 28.216 51.4775 28.472C52.3735 28.728 53.2375 28.856 54.0695 28.856C55.6908 28.856 56.9708 28.5253 57.9095 27.864C58.8482 27.2027 59.3175 26.3067 59.3175 25.176C59.3175 24.3013 59.0935 23.5867 58.6455 23.032C58.1975 22.4773 57.6002 22.0293 56.8535 21.688C56.1068 21.3467 55.2855 21.048 54.3895 20.792C53.4935 20.536 52.5868 20.2587 51.6695 19.96C50.7735 19.64 49.9522 19.256 49.2055 18.808C48.4588 18.3387 47.8615 17.7307 47.4135 16.984C46.9655 16.2373 46.7415 15.288 46.7415 14.136C46.7415 12.9627 47.0615 11.9493 47.7015 11.096C48.3415 10.2427 49.2482 9.58133 50.4215 9.112C51.5948 8.62133 52.9495 8.376 54.4855 8.376C55.7868 8.376 57.0562 8.568 58.2935 8.952C59.5522 9.336 60.6508 9.82667 61.5895 10.424L60.5015 12.568Z" fill="white"/>
</svg>
