<svg width="90" height="88" viewBox="0 0 90 88" fill="none" xmlns="http://www.w3.org/2000/svg">
<path fill-rule="evenodd" clip-rule="evenodd" d="M28.3258 23.2449H79.3447C80.7369 23.2449 82.1105 23.5858 83.3592 24.2413C84.6078 24.8967 85.6981 25.8492 86.5456 27.0249C87.3931 28.2007 87.9752 29.5682 88.2469 31.0217C88.5185 32.4752 88.4724 33.9758 88.1121 35.4073L83.6202 53.2521C82.7419 56.7413 80.8066 59.8245 78.1143 62.0235C75.422 64.2225 72.1233 65.4145 68.7298 65.4145H38.9407C35.5472 65.4145 32.2485 64.2225 29.5562 62.0235C26.8639 59.8245 24.9285 56.7413 24.0502 53.2521L19.5584 35.4073C19.1981 33.9758 19.1519 32.4752 19.4235 31.0217C19.6951 29.5682 20.2772 28.2007 21.1248 27.0249C21.9723 25.8492 23.0625 24.8967 24.3112 24.2413C25.5599 23.5858 26.9336 23.2449 28.3258 23.2449Z" stroke="#ECF5FC" stroke-width="3" stroke-linecap="round" stroke-linejoin="round"/>
<path d="M21.1621 41.7777L13.682 12.0615C12.2046 6.19243 7.20811 2.11133 1.5 2.11133" stroke="#ECF5FC" stroke-width="3" stroke-linecap="round" stroke-linejoin="round"/>
<path fill-rule="evenodd" clip-rule="evenodd" d="M42.6199 81.8802C42.6199 82.4066 42.5225 82.9278 42.3332 83.4142C42.144 83.9005 41.8667 84.3424 41.517 84.7146C41.1673 85.0868 40.7522 85.3821 40.2953 85.5835C39.8384 85.7849 39.3488 85.8886 38.8543 85.8886C38.3598 85.8886 37.8702 85.7849 37.4133 85.5835C36.9564 85.3821 36.5413 85.0868 36.1916 84.7146C35.8419 84.3424 35.5646 83.9005 35.3753 83.4142C35.1861 82.9278 35.0886 82.4066 35.0886 81.8802C35.0886 81.3538 35.1861 80.8326 35.3753 80.3463C35.5646 79.86 35.8419 79.4181 36.1916 79.0459C36.5413 78.6736 36.9564 78.3784 37.4133 78.177C37.8702 77.9755 38.3598 77.8718 38.8543 77.8718C39.3488 77.8718 39.8384 77.9755 40.2953 78.177C40.7522 78.3784 41.1673 78.6736 41.517 79.0459C41.8667 79.4181 42.144 79.86 42.3332 80.3463C42.5225 80.8326 42.6199 81.3538 42.6199 81.8802Z" stroke="#ECF5FC" stroke-width="3" stroke-linecap="round" stroke-linejoin="round"/>
<path fill-rule="evenodd" clip-rule="evenodd" d="M70.2618 81.8802C70.2618 82.4066 70.1645 82.9278 69.9752 83.4142C69.786 83.9005 69.5085 84.3424 69.1588 84.7146C68.8091 85.0868 68.3941 85.3821 67.9373 85.5835C67.4804 85.7849 66.9906 85.8886 66.4961 85.8886C66.0016 85.8886 65.512 85.7849 65.0551 85.5835C64.5982 85.3821 64.1831 85.0868 63.8334 84.7146C63.4837 84.3424 63.2064 83.9005 63.0172 83.4142C62.8279 82.9278 62.7305 82.4066 62.7305 81.8802C62.7305 81.3538 62.8279 80.8326 63.0172 80.3463C63.2064 79.86 63.4837 79.4181 63.8334 79.0459C64.1831 78.6736 64.5982 78.3784 65.0551 78.177C65.512 77.9755 66.0016 77.8718 66.4961 77.8718C66.9906 77.8718 67.4804 77.9755 67.9373 78.177C68.3941 78.3784 68.8091 78.6736 69.1588 79.0459C69.5085 79.4181 69.786 79.86 69.9752 80.3463C70.1645 80.8326 70.2618 81.3538 70.2618 81.8802Z" stroke="#ECF5FC" stroke-width="3" stroke-linecap="round" stroke-linejoin="round"/>
<circle cx="45.0089" cy="39.4178" r="1.56401" stroke="#ECF5FC" stroke-width="3"/>
<circle cx="62.1673" cy="39.4178" r="1.56401" stroke="#ECF5FC" stroke-width="3"/>
<mask id="mask0_1093_3777" style="mask-type:alpha" maskUnits="userSpaceOnUse" x="24" y="3" width="60" height="60">
<circle cx="54.2009" cy="32.6771" r="29.4145" fill="#E5254A"/>
</mask>
<g mask="url(#mask0_1093_3777)">
<circle cx="54.2009" cy="78.0243" r="27.9145" stroke="#ECF5FC" stroke-width="3"/>
</g>
</svg>
