<svg width="35" height="34" viewBox="0 0 35 34" fill="none" xmlns="http://www.w3.org/2000/svg">
<path fill-rule="evenodd" clip-rule="evenodd" d="M4.91251 1.50195H11.9553C13.5627 1.50195 14.8568 2.79601 14.8568 4.40342V11.4462C14.8568 13.0536 13.5627 14.3477 11.9553 14.3477H4.91251C3.30509 14.3477 2.01105 13.0536 2.01105 11.4462V4.40342C2.01105 2.79601 3.30509 1.50195 4.91251 1.50195Z" stroke="#013660" stroke-width="3" stroke-linecap="round" stroke-linejoin="round"/>
<path fill-rule="evenodd" clip-rule="evenodd" d="M23.0558 1.50195H30.0986C31.706 1.50195 33 2.79601 33 4.40342V16.6697C33 18.2771 31.706 19.5711 30.0986 19.5711H23.0558C21.4484 19.5711 20.1543 18.2771 20.1543 16.6697V4.40342C20.1543 2.79601 21.4484 1.50195 23.0558 1.50195Z" stroke="#E5254A" stroke-width="3" stroke-linecap="round" stroke-linejoin="round"/>
<path fill-rule="evenodd" clip-rule="evenodd" d="M4.91251 19.6523H11.9553C13.5627 19.6523 14.8568 20.9464 14.8568 22.5538V29.5966C14.8568 31.204 13.5627 32.4981 11.9553 32.4981H4.91251C3.30509 32.4981 2.01105 31.204 2.01105 29.5966V22.5538C2.01105 20.9464 3.30509 19.6523 4.91251 19.6523Z" stroke="#013660" stroke-width="3" stroke-linecap="round" stroke-linejoin="round"/>
<path fill-rule="evenodd" clip-rule="evenodd" d="M23.0558 24.8757H30.0986C31.706 24.8757 33 26.1698 33 27.7772V29.5965C33 31.204 31.706 32.498 30.0986 32.498H23.0558C21.4484 32.498 20.1543 31.204 20.1543 29.5965V27.7772C20.1543 26.1698 21.4484 24.8757 23.0558 24.8757Z" stroke="#013660" stroke-width="3" stroke-linecap="round" stroke-linejoin="round"/>
</svg>
