<svg width="38" height="38" viewBox="0 0 38 38" fill="none" xmlns="http://www.w3.org/2000/svg">
<path fill-rule="evenodd" clip-rule="evenodd" d="M12.2574 10.8H32.4141C32.9641 10.8 33.5068 10.9347 34.0001 11.1937C34.4934 11.4527 34.9241 11.829 35.259 12.2935C35.5938 12.758 35.8238 13.2983 35.9311 13.8725C36.0384 14.4468 36.0202 15.0396 35.8779 15.6052L34.1032 22.6553C33.7562 24.0339 32.9916 25.252 31.9279 26.1208C30.8643 26.9896 29.561 27.4605 28.2203 27.4605H16.4512C15.1104 27.4605 13.8072 26.9896 12.7435 26.1208C11.6799 25.252 10.9152 24.0339 10.5682 22.6553L8.79359 15.6052C8.65123 15.0396 8.63297 14.4468 8.74028 13.8725C8.84759 13.2983 9.07757 12.758 9.41242 12.2935C9.74727 11.829 10.178 11.4527 10.6713 11.1937C11.1646 10.9347 11.7074 10.8 12.2574 10.8Z" stroke="#E5254A" stroke-width="3" stroke-linecap="round" stroke-linejoin="round"/>
<path d="M9.42718 18.122L6.47193 6.3817C5.88825 4.06293 3.91423 2.45056 1.65906 2.45056" stroke="#E5254A" stroke-width="3" stroke-linecap="round" stroke-linejoin="round"/>
<path fill-rule="evenodd" clip-rule="evenodd" d="M17.9048 33.9658C17.9048 34.1738 17.8663 34.3797 17.7915 34.5718C17.7168 34.764 17.6072 34.9385 17.469 35.0856C17.3309 35.2326 17.1669 35.3493 16.9864 35.4289C16.8059 35.5085 16.6124 35.5494 16.4171 35.5494C16.2217 35.5494 16.0282 35.5085 15.8477 35.4289C15.6672 35.3493 15.5032 35.2326 15.3651 35.0856C15.2269 34.9385 15.1174 34.764 15.0426 34.5718C14.9678 34.3797 14.9293 34.1738 14.9293 33.9658C14.9293 33.7578 14.9678 33.5519 15.0426 33.3598C15.1174 33.1676 15.2269 32.993 15.3651 32.846C15.5032 32.6989 15.6672 32.5823 15.8477 32.5027C16.0282 32.4231 16.2217 32.3821 16.4171 32.3821C16.6124 32.3821 16.8059 32.4231 16.9864 32.5027C17.1669 32.5823 17.3309 32.6989 17.469 32.846C17.6072 32.993 17.7168 33.1676 17.7915 33.3598C17.8663 33.5519 17.9048 33.7578 17.9048 33.9658Z" stroke="#013660" stroke-width="3" stroke-linecap="round" stroke-linejoin="round"/>
<path fill-rule="evenodd" clip-rule="evenodd" d="M28.8256 33.9658C28.8256 34.1738 28.7872 34.3797 28.7124 34.5718C28.6377 34.764 28.528 34.9385 28.3899 35.0856C28.2517 35.2326 28.0878 35.3493 27.9073 35.4289C27.7268 35.5085 27.5333 35.5494 27.3379 35.5494C27.1425 35.5494 26.9491 35.5085 26.7686 35.4289C26.5881 35.3493 26.4241 35.2326 26.2859 35.0856C26.1478 34.9385 26.0382 34.764 25.9634 34.5718C25.8887 34.3797 25.8502 34.1738 25.8502 33.9658C25.8502 33.7578 25.8887 33.5519 25.9634 33.3598C26.0382 33.1676 26.1478 32.993 26.2859 32.846C26.4241 32.6989 26.5881 32.5823 26.7686 32.5027C26.9491 32.4231 27.1425 32.3821 27.3379 32.3821C27.5333 32.3821 27.7268 32.4231 27.9073 32.5027C28.0878 32.5823 28.2517 32.6989 28.3899 32.846C28.528 32.993 28.6377 33.1676 28.7124 33.3598C28.7872 33.5519 28.8256 33.7578 28.8256 33.9658Z" stroke="#013660" stroke-width="3" stroke-linecap="round" stroke-linejoin="round"/>
</svg>
