<svg width="35" height="34" viewBox="0 0 35 34" fill="none" xmlns="http://www.w3.org/2000/svg">
<path fill-rule="evenodd" clip-rule="evenodd" d="M18.8318 1.58847C17.7814 1.83977 16.9011 2.64403 16.6009 3.76455L16.0926 5.66122C15.5713 5.72544 15.0551 5.82555 14.5477 5.96081C14.0409 6.0979 13.5441 6.26978 13.0609 6.47521L11.6711 5.08551C10.8508 4.26525 9.68646 4.00896 8.65115 4.31656C8.1805 4.45639 7.73663 4.71261 7.36378 5.08548L5.59098 6.85837C4.39782 8.05153 4.39782 9.97255 5.59098 11.1657L7.00069 12.5755C6.59615 13.5355 6.32482 14.5463 6.19432 15.5799L4.27004 16.0955C2.6402 16.5322 1.67969 18.1959 2.11637 19.8257L2.76531 22.2474C3.20202 23.8773 4.86567 24.8378 6.49551 24.4011L8.42485 23.8841C9.05439 24.7111 9.79383 25.4483 10.6228 26.0752L10.1044 28.01C9.66762 29.6398 10.6282 31.3035 12.2581 31.7402L14.6797 32.389C16.3096 32.8258 17.9733 31.8652 18.41 30.2354L18.9227 28.3219C19.4413 28.2584 19.9549 28.1594 20.4599 28.0257C20.9641 27.889 21.4583 27.718 21.939 27.5137L23.3397 28.9144C24.5329 30.1076 26.4542 30.1077 27.6473 28.9146L29.4199 27.1417C30.6131 25.9486 30.6131 24.0275 29.4199 22.8344L28.0038 21.4182C28.4082 20.4607 28.68 19.4525 28.8117 18.4215L30.741 17.9045C32.3708 17.4678 33.3314 15.8042 32.8947 14.1743L32.2458 11.7526C31.809 10.1228 30.1454 9.16226 28.5155 9.59897L26.6148 10.1082C25.9811 9.27066 25.2349 8.52449 24.3973 7.89082L24.9065 5.99016C25.3432 4.36027 24.3827 2.69644 22.7528 2.25974L20.3313 1.61085C19.8219 1.47443 19.3093 1.47425 18.8318 1.58847Z" stroke="#013660" stroke-width="3" stroke-linecap="round" stroke-linejoin="round"/>
<path d="M17.5055 22.4057C20.4824 22.4057 22.8957 19.9924 22.8957 17.0155C22.8957 14.0385 20.4824 11.6252 17.5055 11.6252C14.5286 11.6252 12.1153 14.0385 12.1153 17.0155C12.1153 19.9924 14.5286 22.4057 17.5055 22.4057Z" stroke="#E5254A" stroke-width="3" stroke-linecap="round" stroke-linejoin="round"/>
</svg>
