<svg width="57" height="54" viewBox="0 0 57 54" fill="none" xmlns="http://www.w3.org/2000/svg">
<path d="M49.9844 23.875V44.4367C49.9844 48.6267 46.5398 52 42.2612 52H14.7388C10.4601 52 7.01562 48.6267 7.01562 44.4367V23.875" stroke="#E5254A" stroke-width="3" stroke-linecap="round" stroke-linejoin="round"/>
<path fill-rule="evenodd" clip-rule="evenodd" d="M53.6715 15.6057L48.9625 2H8.03749L3.32855 15.6057C2.66647 17.5186 2.32812 19.5336 2.32813 21.5635C2.42494 22.2688 2.7911 22.9059 3.34598 23.3345C3.90086 23.7631 4.59901 23.948 5.28692 23.8488H51.7131C52.1016 23.8488 52.4864 23.7703 52.8454 23.6178C53.2043 23.4654 53.5306 23.2419 53.8053 22.9602C54.0801 22.6785 54.298 22.344 54.4467 21.9759C54.5954 21.6078 54.6719 21.2133 54.6719 20.8148C54.6303 19.0327 54.2919 17.2709 53.6715 15.6057Z" stroke="#E5254A" stroke-width="3" stroke-linecap="round" stroke-linejoin="round"/>
<path d="M37.4844 2L42.2287 16.3283C42.7081 17.7762 42.9531 19.3011 42.9531 20.8374V23.875" stroke="#E5254A" stroke-width="3" stroke-linecap="round" stroke-linejoin="round"/>
<path d="M19.5156 2L14.7713 16.3283C14.2919 17.7762 14.0469 19.3011 14.0469 20.8374V23.875" stroke="#E5254A" stroke-width="3" stroke-linecap="round" stroke-linejoin="round"/>
<path d="M28.1094 2V23.875" stroke="#E5254A" stroke-width="3" stroke-linecap="round" stroke-linejoin="round"/>
</svg>
