<svg width="34" height="34" viewBox="0 0 34 34" fill="none" xmlns="http://www.w3.org/2000/svg">
<path fill-rule="evenodd" clip-rule="evenodd" d="M4.49763 1.82483H11.3937C12.9676 1.82483 14.2347 3.09192 14.2347 4.66584V11.5619C14.2347 13.1358 12.9676 14.4029 11.3937 14.4029H4.49763C2.9237 14.4029 1.65662 13.1358 1.65662 11.5619V4.66584C1.65662 3.09192 2.9237 1.82483 4.49763 1.82483Z" stroke="#E5254A" stroke-width="3" stroke-linecap="round" stroke-linejoin="round"/>
<path fill-rule="evenodd" clip-rule="evenodd" d="M4.49763 19.597H11.3937C12.9676 19.597 14.2347 20.8641 14.2347 22.4381V29.3341C14.2347 30.908 12.9676 32.1751 11.3937 32.1751H4.49763C2.9237 32.1751 1.65662 30.908 1.65662 29.3341V22.4381C1.65662 20.8641 2.9237 19.597 4.49763 19.597Z" stroke="#013660" stroke-width="3" stroke-linecap="round" stroke-linejoin="round"/>
<path d="M19.4219 8.11389H32" stroke="#E5254A" stroke-width="3" stroke-linecap="round" stroke-linejoin="round"/>
<path d="M19.4219 13.301H32" stroke="#E5254A" stroke-width="3" stroke-linecap="round" stroke-linejoin="round"/>
<path d="M19.4219 25.8861H32" stroke="#013660" stroke-width="3" stroke-linecap="round" stroke-linejoin="round"/>
<path d="M19.4219 31.0732H32" stroke="#013660" stroke-width="3" stroke-linecap="round" stroke-linejoin="round"/>
</svg>
