<svg width="43" height="39" viewBox="0 0 43 39" fill="none" xmlns="http://www.w3.org/2000/svg">
<path fill-rule="evenodd" clip-rule="evenodd" d="M23.1414 13.0005C19.3189 13.0005 16.1983 16.0959 16.1983 19.8875V32.1131C16.1983 35.9047 19.3189 39.0001 23.1414 39.0001H35.4667C39.2892 39.0001 42.41 35.9047 42.41 32.1131V19.8875C42.41 16.0959 39.2892 13.0005 35.4667 13.0005H23.1414ZM23.1414 15.7553H35.4667C37.7987 15.7553 39.6327 17.5744 39.6327 19.8875V32.1131C39.6327 34.4262 37.7987 36.2453 35.4667 36.2453H23.1414C20.8095 36.2453 18.9755 34.4262 18.9755 32.1131V19.8875C18.9755 17.5744 20.8095 15.7553 23.1414 15.7553Z" fill="#013660"/>
<path fill-rule="evenodd" clip-rule="evenodd" d="M6.94316 0C3.12068 0 -6.10352e-05 3.09545 -6.10352e-05 6.88704V19.1126C-6.10352e-05 22.9042 3.12068 25.9996 6.94316 25.9996H19.2685C23.0909 25.9996 26.2116 22.9042 26.2116 19.1126V6.88704C26.2116 3.09545 23.0909 0 19.2685 0H6.94316ZM6.94316 2.75482H19.2685C21.6004 2.75482 23.4344 4.57397 23.4344 6.88704V19.1126C23.4344 21.4257 21.6004 23.2448 19.2685 23.2448H6.94316C4.61127 23.2448 2.77717 21.4257 2.77717 19.1126V6.88704C2.77717 4.57397 4.61127 2.75482 6.94316 2.75482Z" fill="#E5254A"/>
</svg>
